<svg viewBox="0 0 38 72" fill="none" xmlns="http://www.w3.org/2000/svg">
    <g id="906f42df">
        <path id="5410c1c7"
            d="M10.024 53V22.088H25C28.072 22.088 30.344 22.808 31.816 24.248C33.288 25.688 34.024 27.72 34.024 30.344C34.024 32.008 33.688 33.416 33.016 34.568C32.344 35.688 31.448 36.536 30.328 37.112C31.832 37.528 33.016 38.28 33.88 39.368C34.776 40.424 35.224 41.992 35.224 44.072C35.224 47.08 34.408 49.32 32.776 50.792C31.176 52.264 28.808 53 25.672 53H10.024ZM15.256 35.288H24.28C26.04 35.288 27.288 34.888 28.024 34.088C28.792 33.256 29.176 32.152 29.176 30.776C29.176 29.176 28.792 27.992 28.024 27.224C27.256 26.424 25.816 26.024 23.704 26.024H15.256V35.288ZM15.256 49.16H24.568C26.424 49.16 27.784 48.776 28.648 48.008C29.512 47.208 29.944 45.832 29.944 43.88C29.944 42.28 29.512 41.096 28.648 40.328C27.816 39.528 26.28 39.128 24.04 39.128H15.256V49.16Z">
        </path>
        <path id="bbae2e7a"
            d="M0 47C0 46.4477 0.447715 46 1 46H6C6.55228 46 7 46.4477 7 47V52C7 52.5523 6.55228 53 6 53H1C0.447715 53 0 52.5523 0 52V47Z">
        </path>
    </g>
</svg>