<svg viewBox="0 0 227 34" fill="none" xmlns="http://www.w3.org/2000/svg">
    <path id="f82f3046"
        d="M0.024 33V2.088H15C18.072 2.088 20.344 2.808 21.816 4.248C23.288 5.688 24.024 7.72 24.024 10.344C24.024 12.008 23.688 13.416 23.016 14.568C22.344 15.688 21.448 16.536 20.328 17.112C21.832 17.528 23.016 18.28 23.88 19.368C24.776 20.424 25.224 21.992 25.224 24.072C25.224 27.08 24.408 29.32 22.776 30.792C21.176 32.264 18.808 33 15.672 33H0.024ZM5.256 15.288H14.28C16.04 15.288 17.288 14.888 18.024 14.088C18.792 13.256 19.176 12.152 19.176 10.776C19.176 9.176 18.792 7.992 18.024 7.224C17.256 6.424 15.816 6.024 13.704 6.024H5.256V15.288ZM5.256 29.16H14.568C16.424 29.16 17.784 28.776 18.648 28.008C19.512 27.208 19.944 25.832 19.944 23.88C19.944 22.28 19.512 21.096 18.648 20.328C17.816 19.528 16.28 19.128 14.04 19.128H5.256V29.16ZM37.4093 33.48C35.9693 33.48 34.6253 33.224 33.3773 32.712C32.1613 32.2 31.1853 31.432 30.4492 30.408C29.7133 29.352 29.3453 28.056 29.3453 26.52C29.3453 24.344 30.0813 22.6 31.5533 21.288C33.0573 19.944 35.3613 19.272 38.4653 19.272H45.7613V18.264C45.7613 17.176 45.5853 16.312 45.2333 15.672C44.9133 15.032 44.3053 14.568 43.4093 14.28C42.5453 13.992 41.2653 13.848 39.5693 13.848C36.8813 13.848 34.3693 14.248 32.0333 15.048V11.16C33.0573 10.744 34.3053 10.408 35.7773 10.152C37.2493 9.896 38.8333 9.768 40.5293 9.768C43.8573 9.768 46.3853 10.44 48.1133 11.784C49.8733 13.128 50.7533 15.32 50.7533 18.36V33H46.2893L45.9533 30.696C45.0253 31.592 43.8733 32.28 42.4973 32.76C41.1533 33.24 39.4573 33.48 37.4093 33.48ZM38.8013 29.736C40.3693 29.736 41.7293 29.48 42.8813 28.968C44.0653 28.424 45.0253 27.704 45.7613 26.808V22.824H38.5613C37.0253 22.824 35.9053 23.128 35.2013 23.736C34.5293 24.312 34.1933 25.208 34.1933 26.424C34.1933 27.608 34.5933 28.456 35.3933 28.968C36.1933 29.48 37.3293 29.736 38.8013 29.736ZM64.1393 33.48C62.5713 33.48 61.0673 33.368 59.6273 33.144C58.2193 32.92 57.0513 32.648 56.1233 32.328V27.912C57.2113 28.328 58.4113 28.648 59.7233 28.872C61.0353 29.096 62.2833 29.208 63.4673 29.208C65.2593 29.208 66.5393 29.048 67.3073 28.728C68.0753 28.408 68.4593 27.784 68.4593 26.856C68.4593 26.184 68.2193 25.656 67.7393 25.272C67.2913 24.888 66.6033 24.536 65.6753 24.216C64.7793 23.896 63.6273 23.512 62.2193 23.064C60.8753 22.616 59.7073 22.136 58.7153 21.624C57.7233 21.08 56.9553 20.392 56.4113 19.56C55.8673 18.728 55.5953 17.64 55.5953 16.296C55.5953 14.216 56.3473 12.616 57.8513 11.496C59.3553 10.344 61.7713 9.768 65.0993 9.768C66.4113 9.768 67.6593 9.864 68.8433 10.056C70.0273 10.248 71.0353 10.488 71.8673 10.776V15.144C70.9713 14.792 69.9793 14.52 68.8913 14.328C67.8353 14.136 66.8433 14.04 65.9153 14.04C64.2513 14.04 62.9873 14.184 62.1233 14.472C61.2913 14.76 60.8753 15.336 60.8753 16.2C60.8753 17.096 61.3073 17.736 62.1713 18.12C63.0673 18.472 64.4913 18.968 66.4433 19.608C68.2353 20.152 69.6593 20.728 70.7153 21.336C71.7713 21.944 72.5233 22.68 72.9713 23.544C73.4513 24.376 73.6913 25.464 73.6913 26.808C73.6913 29.048 72.8753 30.728 71.2433 31.848C69.6113 32.936 67.2433 33.48 64.1393 33.48ZM78.8209 33V0.647999H84.0529V12.456C85.0449 11.656 86.2289 11.016 87.6049 10.536C88.9809 10.024 90.5329 9.768 92.2609 9.768C95.1409 9.768 97.2689 10.456 98.6449 11.832C100.021 13.208 100.709 15.352 100.709 18.264V33H95.5249V18.504C95.5249 16.744 95.1409 15.512 94.3729 14.808C93.6369 14.104 92.3409 13.752 90.4849 13.752C89.3329 13.752 88.1649 14.008 86.9809 14.52C85.7969 15 84.8209 15.64 84.0529 16.44V33H78.8209ZM119.051 33.48C117.387 33.48 115.947 33.256 114.731 32.808C113.515 32.36 112.395 31.672 111.371 30.744L111.083 33H106.571V0.647999H111.803V11.736C113.787 10.424 116.171 9.768 118.955 9.768C122.187 9.768 124.731 10.696 126.587 12.552C128.475 14.376 129.419 17.336 129.419 21.432C129.419 25.56 128.491 28.6 126.635 30.552C124.779 32.504 122.251 33.48 119.051 33.48ZM117.659 29.544C120.027 29.544 121.691 28.872 122.651 27.528C123.643 26.184 124.139 24.152 124.139 21.432C124.139 18.616 123.611 16.632 122.555 15.48C121.499 14.328 119.835 13.752 117.563 13.752C115.195 13.752 113.275 14.408 111.803 15.72V27.144C113.307 28.744 115.259 29.544 117.659 29.544ZM145.404 33.48C141.308 33.48 138.3 32.456 136.38 30.408C134.492 28.36 133.548 25.432 133.548 21.624C133.548 17.816 134.508 14.888 136.428 12.84C138.348 10.792 141.34 9.768 145.404 9.768C149.5 9.768 152.508 10.792 154.428 12.84C156.348 14.888 157.308 17.816 157.308 21.624C157.308 25.432 156.348 28.36 154.428 30.408C152.54 32.456 149.532 33.48 145.404 33.48ZM145.404 29.064C147.804 29.064 149.5 28.488 150.492 27.336C151.516 26.152 152.028 24.248 152.028 21.624C152.028 19 151.516 17.112 150.492 15.96C149.5 14.808 147.804 14.232 145.404 14.232C143.036 14.232 141.34 14.808 140.316 15.96C139.324 17.112 138.828 19 138.828 21.624C138.828 24.248 139.324 26.152 140.316 27.336C141.34 28.488 143.036 29.064 145.404 29.064ZM169.503 33.48C168.063 33.48 166.719 33.224 165.471 32.712C164.255 32.2 163.279 31.432 162.543 30.408C161.807 29.352 161.439 28.056 161.439 26.52C161.439 24.344 162.175 22.6 163.647 21.288C165.151 19.944 167.455 19.272 170.559 19.272H177.855V18.264C177.855 17.176 177.679 16.312 177.327 15.672C177.007 15.032 176.399 14.568 175.503 14.28C174.639 13.992 173.359 13.848 171.663 13.848C168.975 13.848 166.463 14.248 164.127 15.048V11.16C165.151 10.744 166.399 10.408 167.871 10.152C169.343 9.896 170.927 9.768 172.623 9.768C175.951 9.768 178.479 10.44 180.207 11.784C181.967 13.128 182.847 15.32 182.847 18.36V33H178.383L178.047 30.696C177.119 31.592 175.967 32.28 174.591 32.76C173.247 33.24 171.551 33.48 169.503 33.48ZM170.895 29.736C172.463 29.736 173.823 29.48 174.975 28.968C176.159 28.424 177.119 27.704 177.855 26.808V22.824H170.655C169.119 22.824 167.999 23.128 167.295 23.736C166.623 24.312 166.287 25.208 166.287 26.424C166.287 27.608 166.687 28.456 167.487 28.968C168.287 29.48 169.423 29.736 170.895 29.736ZM188.649 33V10.248H193.449L193.737 12.888C194.825 12.184 196.121 11.544 197.625 10.968C199.129 10.392 200.617 9.992 202.089 9.768V13.752C201.193 13.912 200.217 14.152 199.161 14.472C198.137 14.76 197.161 15.096 196.233 15.48C195.305 15.832 194.521 16.2 193.881 16.584V33H188.649ZM214.37 33.48C212.322 33.48 210.514 33.128 208.946 32.424C207.378 31.72 206.162 30.552 205.298 28.92C204.434 27.288 204.002 25.096 204.002 22.344C204.002 19.624 204.466 17.336 205.394 15.48C206.322 13.592 207.602 12.168 209.234 11.208C210.898 10.248 212.77 9.768 214.85 9.768C216.226 9.768 217.442 9.928 218.498 10.248C219.586 10.568 220.626 11.064 221.618 11.736V0.647999H226.85V33H222.386L222.05 30.744C221.026 31.672 219.906 32.36 218.69 32.808C217.474 33.256 216.034 33.48 214.37 33.48ZM215.762 29.544C218.098 29.544 220.05 28.744 221.618 27.144V15.768C220.114 14.424 218.226 13.752 215.954 13.752C213.746 13.752 212.082 14.488 210.962 15.96C209.842 17.432 209.282 19.576 209.282 22.392C209.282 25.112 209.794 26.984 210.818 28.008C211.874 29.032 213.522 29.544 215.762 29.544Z">
    </path>
</svg>