<svg width="58" height="53" viewBox="0 0 58 53" fill="none" xmlns="http://www.w3.org/2000/svg">
  <g id="ade4fd68">
    <g id="81a9214c">
      <g clip-path="url(#d8983b9f)">
        <rect width="58" height="53" rx="10" fill="white"></rect>
        <g id="91369818">
          <path id="8083d575" d="M20.024 43V12.088H35C38.072 12.088 40.344 12.808 41.816 14.248C43.288 15.688 44.024 17.72 44.024 20.344C44.024 22.008 43.688 23.416 43.016 24.568C42.344 25.688 41.448 26.536 40.328 27.112C41.832 27.528 43.016 28.28 43.88 29.368C44.776 30.424 45.224 31.992 45.224 34.072C45.224 37.08 44.408 39.32 42.776 40.792C41.176 42.264 38.808 43 35.672 43H20.024ZM25.256 25.288H34.28C36.04 25.288 37.288 24.888 38.024 24.088C38.792 23.256 39.176 22.152 39.176 20.776C39.176 19.176 38.792 17.992 38.024 17.224C37.256 16.424 35.816 16.024 33.704 16.024H25.256V25.288ZM25.256 39.16H34.568C36.424 39.16 37.784 38.776 38.648 38.008C39.512 37.208 39.944 35.832 39.944 33.88C39.944 32.28 39.512 31.096 38.648 30.328C37.816 29.528 36.28 29.128 34.04 29.128H25.256V39.16Z" fill="black"></path>
          <path id="305c3021" d="M10 37C10 36.4477 10.4477 36 11 36H16C16.5523 36 17 36.4477 17 37V42C17 42.5523 16.5523 43 16 43H11C10.4477 43 10 42.5523 10 42V37Z" fill="black"></path>
        </g>
      </g>
    </g>
  </g>
  <defs>
    <clipPath id="d8983b9f">
      <rect width="58" height="53" rx="10" fill="white"></rect>
    </clipPath>
  </defs>
</svg>
